<svg id="Layer_1" data-name="Layer 1" xmlns="http://www.w3.org/2000/svg" viewBox="0 0 303 303"><defs><style>.cls-1{fill:#fff;}.cls-2{fill:none;}.cls-3{fill:#ffcb3d;}</style></defs><title>Choice</title><path class="cls-1" d="M87.79,161.88V183.3H66.36V161.88H87.79m0-7.14H66.36a7.16,7.16,0,0,0-7.14,7.14V183.3a7.16,7.16,0,0,0,7.14,7.14H87.79a7.16,7.16,0,0,0,7.14-7.14V161.88a7.16,7.16,0,0,0-7.14-7.14Z"/><path class="cls-1" d="M216.34,161.88V183.3H194.91V161.88h21.42m0-7.14H194.91a7.16,7.16,0,0,0-7.14,7.14V183.3a7.16,7.16,0,0,0,7.14,7.14h21.42a7.16,7.16,0,0,0,7.14-7.14V161.88a7.16,7.16,0,0,0-7.14-7.14Z"/><path class="cls-1" d="M152.06,161.88V183.3H130.64V161.88h21.42m0-7.14H130.64a7.16,7.16,0,0,0-7.14,7.14V183.3a7.16,7.16,0,0,0,7.14,7.14h21.42a7.16,7.16,0,0,0,7.14-7.14V161.88a7.16,7.16,0,0,0-7.14-7.14Z"/><path class="cls-1" d="M87.79,211.87v21.42H66.36V211.87H87.79m0-7.14H66.36a7.16,7.16,0,0,0-7.14,7.14v21.42a7.16,7.16,0,0,0,7.14,7.14H87.79a7.16,7.16,0,0,0,7.14-7.14V211.87a7.16,7.16,0,0,0-7.14-7.14Z"/><path class="cls-1" d="M216.34,211.87v21.42H194.91V211.87h21.42m0-7.14H194.91a7.16,7.16,0,0,0-7.14,7.14v21.42a7.16,7.16,0,0,0,7.14,7.14h21.42a7.16,7.16,0,0,0,7.14-7.14V211.87a7.16,7.16,0,0,0-7.14-7.14Z"/><path class="cls-1" d="M152.06,211.87v21.42H130.64V211.87h21.42m0-7.14H130.64a7.16,7.16,0,0,0-7.14,7.14v21.42a7.16,7.16,0,0,0,7.14,7.14h21.42a7.16,7.16,0,0,0,7.14-7.14V211.87a7.16,7.16,0,0,0-7.14-7.14Z"/><circle class="cls-1" cx="66.36" cy="94.03" r="3.57"/><path class="cls-1" d="M66.36,86.89A7.14,7.14,0,1,0,73.51,94a7.14,7.14,0,0,0-7.14-7.14Z"/><circle class="cls-1" cx="87.79" cy="94.03" r="3.57"/><path class="cls-1" d="M87.79,86.89A7.14,7.14,0,1,0,94.93,94a7.14,7.14,0,0,0-7.14-7.14Z"/><circle class="cls-1" cx="109.21" cy="94.03" r="3.57"/><path class="cls-1" d="M109.21,86.89A7.14,7.14,0,1,0,116.36,94a7.14,7.14,0,0,0-7.14-7.14Z"/><rect class="cls-2" x="173.49" y="76.18" width="64.27" height="35.71"/><path class="cls-2" d="M244.9,76.18v57.13h14.28V47.61h-85.7V69h64.27A7.16,7.16,0,0,1,244.9,76.18Z"/><path class="cls-2" d="M166.35,133.31V119H44.94V261.86H237.76V140.45H173.49A7.16,7.16,0,0,1,166.35,133.31Z"/><rect class="cls-2" x="44.94" y="76.18" width="121.41" height="35.71"/><rect class="cls-2" x="173.49" y="119.03" width="64.27" height="14.28"/><path class="cls-1" d="M237.76,140.45V261.86H44.94V119H166.35v-7.14H44.94V76.18H166.35V69H44.94a7.16,7.16,0,0,0-7.14,7.14V261.86A7.16,7.16,0,0,0,44.94,269H237.76a7.16,7.16,0,0,0,7.14-7.14V140.45Z"/><path class="cls-3" d="M259.19,40.47h-85.7a7.16,7.16,0,0,0-7.14,7.14v85.7a7.16,7.16,0,0,0,7.14,7.14h85.7a7.16,7.16,0,0,0,7.14-7.14V47.61A7.16,7.16,0,0,0,259.19,40.47Zm0,92.84h-85.7V47.61h85.7Z"/><path class="cls-3" d="M210.78,105.14a3.56,3.56,0,0,1-2.52-1L197.15,93a3.57,3.57,0,0,1,5-5l8.58,8.58,19.69-19.69a3.57,3.57,0,1,1,5,5l-22.22,22.22A3.56,3.56,0,0,1,210.78,105.14Z"/></svg>