<svg id="Layer_1" data-name="Layer 1" xmlns="http://www.w3.org/2000/svg" viewBox="0 0 303 303"><defs><style>.cls-1{fill:#ffcb3d;}.cls-2{fill:#fff;}</style></defs><title>Experience</title><path class="cls-1" d="M53.67,130.69H3.58a3.58,3.58,0,0,1,0-7.16H53.67a3.58,3.58,0,0,1,0,7.16Z"/><path class="cls-2" d="M205.92,130.69H98.58a3.58,3.58,0,0,1,0-7.16H205.92a3.58,3.58,0,0,1,0,7.16Z"/><path class="cls-2" d="M205.92,155.73H98.58a3.58,3.58,0,1,1,0-7.16H205.92a3.58,3.58,0,0,1,0,7.16Z"/><path class="cls-2" d="M204,180.78H96.61a3.58,3.58,0,0,1,0-7.16H204a3.58,3.58,0,1,1,0,7.16Z"/><path class="cls-1" d="M53.67,155.73H11.93a3.58,3.58,0,1,1,0-7.16H53.67a3.58,3.58,0,1,1,0,7.16Z"/><path class="cls-1" d="M53.67,180.78h-25a3.58,3.58,0,0,1,0-7.16h25a3.58,3.58,0,0,1,0,7.16Z"/><path class="cls-2" d="M204,227.3h-82.3a3.58,3.58,0,0,1,0-7.16H204a3.58,3.58,0,1,1,0,7.16Z"/><path class="cls-1" d="M106.84,218.15l3-3a3.58,3.58,0,1,0-5.06-5.06l-3,3-3-3a3.58,3.58,0,1,0-5.06,5.06l3,3-3,3a3.58,3.58,0,1,0,5.06,5.06l3-3,3,3a3.58,3.58,0,0,0,5.06-5.06Z"/><path class="cls-2" d="M229,80.59h0L186.06,37.65H85.88A14.35,14.35,0,0,0,71.56,52V252.34a14.35,14.35,0,0,0,14.31,14.31H214.69A14.35,14.35,0,0,0,229,252.34V80.59Zm-42.92-32.8,32.8,32.8H186.06Zm28.61,211.7H85.88a7.16,7.16,0,0,1-7.16-7.16V52a7.16,7.16,0,0,1,7.16-7.16h93V80.59a7.18,7.18,0,0,0,7.16,7.16h35.78V252.34A7.16,7.16,0,0,1,214.69,259.5Z"/></svg>