<svg id="Layer_1" data-name="Layer 1" xmlns="http://www.w3.org/2000/svg" viewBox="0 0 303 303"><defs><style>.cls-1{fill:#fff;}.cls-2{fill:#ffcb3d;}.cls-3{fill:none;}</style></defs><title>Mobile</title><circle class="cls-1" cx="78.25" cy="239.09" r="3.56"/><path class="cls-2" d="M78.25,232a7.12,7.12,0,1,0,7.12,7.12A7.12,7.12,0,0,0,78.25,232Z"/><path class="cls-3" d="M64,114.4h49.87a7.15,7.15,0,0,1,7.12,7.12v64.12H256.37v-114H64Z"/><rect class="cls-3" x="64" y="192.78" width="49.87" height="21.37"/><rect class="cls-3" x="64" y="121.53" width="49.87" height="15.89"/><polygon class="cls-3" points="56.88 185.65 56.88 144.55 42.63 144.55 42.63 214.15 56.88 214.15 56.88 185.65"/><polygon class="cls-3" points="42.63 221.28 42.63 256.9 113.88 256.9 113.88 221.28 64 221.28 42.63 221.28"/><rect class="cls-3" x="42.62" y="121.53" width="14.25" height="15.89"/><rect class="cls-3" x="64" y="144.55" width="49.87" height="41.11"/><rect class="cls-3" x="64" y="43.15" width="192.37" height="21.37"/><rect class="cls-3" x="121" y="192.78" width="135.37" height="21.37"/><path class="cls-1" d="M256.37,36H64a7.15,7.15,0,0,0-7.12,7.12v28.5A7.15,7.15,0,0,1,64,64.53V43.15H256.37V64.53a7.15,7.15,0,0,1,7.12,7.12V43.15A7.15,7.15,0,0,0,256.37,36Z"/><path class="cls-1" d="M256.37,192.78v21.37H121v7.12H256.37a7.15,7.15,0,0,0,7.12-7.12v-28.5A7.15,7.15,0,0,1,256.37,192.78Z"/><rect class="cls-1" x="64" y="64.53" width="192.37" height="7.12"/><rect class="cls-1" x="121" y="185.65" width="135.37" height="7.12"/><path class="cls-1" d="M256.37,64.53V192.78a7.15,7.15,0,0,0,7.12-7.12v-114A7.15,7.15,0,0,0,256.37,64.53Z"/><path class="cls-1" d="M64,71.65V64.53a7.15,7.15,0,0,0-7.12,7.12V114.4H64Z"/><path class="cls-2" d="M113.87,221.28a7.15,7.15,0,0,0,7.12-7.12h-7.12Z"/><path class="cls-2" d="M113.87,114.4H42.63a7.15,7.15,0,0,0-7.12,7.13V256.9A7.15,7.15,0,0,0,42.63,264h71.25A7.15,7.15,0,0,0,121,256.9V214.15a7.15,7.15,0,0,1-7.12,7.13V256.9H42.63V221.28h71.25v-7.12H42.63V144.55h71.25v69.61H121V121.53A7.15,7.15,0,0,0,113.87,114.4ZM64,137.42H42.63V121.53h71.25v15.89Z"/><rect class="cls-1" x="156.62" y="214.15" width="7.12" height="49.87"/><path class="cls-1" d="M178,264H142.37a3.56,3.56,0,1,1,0-7.12H178a3.56,3.56,0,0,1,0,7.12Z"/></svg>