<svg id="Layer_1" data-name="Layer 1" xmlns="http://www.w3.org/2000/svg" viewBox="0 0 303 303"><defs><style>.cls-1{fill:#fff;}.cls-2{fill:#ffcb3d;}.cls-3{fill:#1b49a0;}</style></defs><title>Trust</title><path class="cls-1" d="M193,60.51a29.3,29.3,0,1,1-26.55,41.61,36.7,36.7,0,0,1-6,4.46,36.66,36.66,0,1,0,13.79-48.2A36.34,36.34,0,0,1,177,65.32,29.11,29.11,0,0,1,193,60.51Z"/><path class="cls-1" d="M215,148.41a14.65,14.65,0,0,1,13.56,9.17,40.1,40.1,0,0,1,7.24-1.53,22,22,0,0,0-20.8-15H184.36a21.73,21.73,0,0,1,1.29,7.32Z"/><path class="cls-1" d="M215,243.63h-29.3V251H215a22,22,0,0,0,20.8-15,40.1,40.1,0,0,1-7.24-1.53A14.65,14.65,0,0,1,215,243.63Z"/><path class="cls-1" d="M90.43,126.44A36.59,36.59,0,0,0,123,106.59a36.68,36.68,0,0,1-6-4.46,29.31,29.31,0,1,1-10.52-36.81,36.33,36.33,0,0,1,2.71-6.93,36.61,36.61,0,1,0-18.74,68Z"/><path class="cls-1" d="M68.46,243.63A14.67,14.67,0,0,1,53.81,229V163.06a14.67,14.67,0,0,1,14.65-14.65h29.3A21.73,21.73,0,0,1,99,141.08H68.46a22,22,0,0,0-22,22V229a22,22,0,0,0,22,22h29.3v-7.32Z"/><path class="cls-1" d="M177,65.32a36.37,36.37,0,0,0-2.71-6.93,36.54,36.54,0,0,0-3.08,2.06,36.55,36.55,0,0,1,3.08-2.06,36.58,36.58,0,0,0-65.06,0h0a36.34,36.34,0,0,0-2.71,6.93c.28.18.54.38.81.58-.27-.19-.53-.39-.81-.58a36.58,36.58,0,0,0,60,36.81,31.06,31.06,0,0,1-1.18-2.93,31.1,31.1,0,0,0,1.18,2.93A36.35,36.35,0,0,0,177,65.32Zm-64.7-4.87h0c-.71-.53-1.45-1-2.2-1.51C110.8,59.42,111.54,59.92,112.25,60.45ZM162.1,101A31.27,31.27,0,0,0,165,98.47h0A31.25,31.25,0,0,1,162.1,101ZM164,94.09a29.51,29.51,0,0,1-6.3,5.57,29.15,29.15,0,0,1-32.05,0,29.51,29.51,0,0,1-6.3-5.57,29.3,29.3,0,1,1,44.65,0Z"/><path class="cls-1" d="M184.36,141.08a22,22,0,0,0-20.68-14.65H119.73A22,22,0,0,0,99,141.08a21.73,21.73,0,0,0-1.29,7.32V251a22,22,0,0,0,22,22h43.95a22,22,0,0,0,22-22V148.41A21.74,21.74,0,0,0,184.36,141.08ZM182,148.41h0ZM178.33,251a14.67,14.67,0,0,1-14.65,14.65H119.73A14.67,14.67,0,0,1,105.08,251V148.41a14.83,14.83,0,0,1,14.65-14.65h43.95a14.83,14.83,0,0,1,14.65,14.65V251Z"/><path class="cls-2" d="M240.59,155.73a40.51,40.51,0,0,0-4.84.32,40.24,40.24,0,0,0,0,79.94,40.27,40.27,0,1,0,4.84-80.25Zm0,73.25a33.1,33.1,0,0,1-3.66-.22,32.62,32.62,0,0,1-7.32-1.71,32.91,32.91,0,0,1,0-62.07,32.63,32.63,0,0,1,7.32-1.71,33,33,0,1,1,3.66,65.7Z"/><polygon class="cls-3" points="236.93 187.96 236.92 187.96 236.92 192.36 236.93 192.36 236.93 187.96"/><polygon class="cls-3" points="236.92 199.68 236.92 204.07 236.93 204.08 236.93 199.68 236.92 199.68"/><path class="cls-2" d="M229.6,198.1v-4.17a3.34,3.34,0,0,0,0,4.17Z"/><path class="cls-2" d="M248.64,192.36h-4.4V188a3.66,3.66,0,0,0-7.32,0v4.4h0v7.32h0v4.4a3.66,3.66,0,0,0,7.32,0v-4.39h4.4a3.66,3.66,0,0,0,0-7.32Z"/><path class="cls-2" d="M229.6,193.94v4.17a3.59,3.59,0,0,0,2.93,1.58h4.39v-7.32h-4.39A3.59,3.59,0,0,0,229.6,193.94Z"/></svg>